<mxfile host="app.diagrams.net" agent="Mozilla/5.0 (Macintosh; Intel Mac OS X 10.15; rv:131.0) Gecko/20100101 Firefox/131.0" version="24.7.17">
  <diagram name="Page-1" id="GhAFPALQknqoFs2C6mst">
    <mxGraphModel dx="2320" dy="956" grid="1" gridSize="10" guides="1" tooltips="1" connect="1" arrows="1" fold="1" page="1" pageScale="1" pageWidth="827" pageHeight="1169" math="1" shadow="0">
      <root>
        <mxCell id="0" />
        <mxCell id="1" parent="0" />
        <mxCell id="GkhUkE4MOTt1ALrYK7Hf-139" value="" style="rounded=1;whiteSpace=wrap;html=1;" vertex="1" parent="1">
          <mxGeometry x="670" y="420" width="290" height="65" as="geometry" />
        </mxCell>
        <mxCell id="GkhUkE4MOTt1ALrYK7Hf-18" value="" style="endArrow=none;html=1;rounded=0;strokeWidth=5;strokeColor=#006BA4;" edge="1" parent="1" source="GkhUkE4MOTt1ALrYK7Hf-24" target="GkhUkE4MOTt1ALrYK7Hf-26">
          <mxGeometry width="50" height="50" relative="1" as="geometry">
            <mxPoint x="40" y="499.5" as="sourcePoint" />
            <mxPoint x="780" y="499.5" as="targetPoint" />
          </mxGeometry>
        </mxCell>
        <mxCell id="GkhUkE4MOTt1ALrYK7Hf-19" value="" style="endArrow=none;html=1;rounded=0;strokeWidth=5;strokeColor=#006BA4;" edge="1" parent="1" source="GkhUkE4MOTt1ALrYK7Hf-25" target="GkhUkE4MOTt1ALrYK7Hf-26">
          <mxGeometry width="50" height="50" relative="1" as="geometry">
            <mxPoint x="60" y="572" as="sourcePoint" />
            <mxPoint x="120" y="588" as="targetPoint" />
          </mxGeometry>
        </mxCell>
        <mxCell id="GkhUkE4MOTt1ALrYK7Hf-20" value="" style="endArrow=none;html=1;rounded=0;strokeWidth=5;strokeColor=#006BA4;" edge="1" parent="1" source="GkhUkE4MOTt1ALrYK7Hf-27" target="GkhUkE4MOTt1ALrYK7Hf-25">
          <mxGeometry width="50" height="50" relative="1" as="geometry">
            <mxPoint x="350" y="580" as="sourcePoint" />
            <mxPoint x="140" y="589" as="targetPoint" />
          </mxGeometry>
        </mxCell>
        <mxCell id="GkhUkE4MOTt1ALrYK7Hf-21" value="" style="endArrow=none;html=1;rounded=0;strokeWidth=5;strokeColor=#006BA4;" edge="1" parent="1" source="GkhUkE4MOTt1ALrYK7Hf-28" target="GkhUkE4MOTt1ALrYK7Hf-27">
          <mxGeometry width="50" height="50" relative="1" as="geometry">
            <mxPoint x="284" y="478" as="sourcePoint" />
            <mxPoint x="216" y="572" as="targetPoint" />
          </mxGeometry>
        </mxCell>
        <mxCell id="GkhUkE4MOTt1ALrYK7Hf-22" value="" style="endArrow=none;html=1;rounded=0;strokeWidth=5;strokeColor=#006BA4;" edge="1" parent="1" source="GkhUkE4MOTt1ALrYK7Hf-28" target="GkhUkE4MOTt1ALrYK7Hf-29">
          <mxGeometry width="50" height="50" relative="1" as="geometry">
            <mxPoint x="361" y="506" as="sourcePoint" />
            <mxPoint x="299" y="474" as="targetPoint" />
          </mxGeometry>
        </mxCell>
        <mxCell id="GkhUkE4MOTt1ALrYK7Hf-23" value="" style="endArrow=none;html=1;rounded=0;strokeWidth=5;strokeColor=#006BA4;" edge="1" parent="1" source="GkhUkE4MOTt1ALrYK7Hf-29" target="GkhUkE4MOTt1ALrYK7Hf-30">
          <mxGeometry width="50" height="50" relative="1" as="geometry">
            <mxPoint x="376" y="518" as="sourcePoint" />
            <mxPoint x="444" y="602" as="targetPoint" />
          </mxGeometry>
        </mxCell>
        <mxCell id="GkhUkE4MOTt1ALrYK7Hf-24" value="" style="ellipse;whiteSpace=wrap;html=1;aspect=fixed;" vertex="1" parent="1">
          <mxGeometry x="30" y="520" width="20" height="20" as="geometry" />
        </mxCell>
        <mxCell id="GkhUkE4MOTt1ALrYK7Hf-25" value="" style="ellipse;whiteSpace=wrap;html=1;aspect=fixed;" vertex="1" parent="1">
          <mxGeometry x="190" y="520" width="20" height="20" as="geometry" />
        </mxCell>
        <mxCell id="GkhUkE4MOTt1ALrYK7Hf-26" value="" style="ellipse;whiteSpace=wrap;html=1;aspect=fixed;" vertex="1" parent="1">
          <mxGeometry x="110" y="520" width="20" height="20" as="geometry" />
        </mxCell>
        <mxCell id="GkhUkE4MOTt1ALrYK7Hf-27" value="" style="ellipse;whiteSpace=wrap;html=1;aspect=fixed;" vertex="1" parent="1">
          <mxGeometry x="270" y="370" width="20" height="20" as="geometry" />
        </mxCell>
        <mxCell id="GkhUkE4MOTt1ALrYK7Hf-28" value="" style="ellipse;whiteSpace=wrap;html=1;aspect=fixed;" vertex="1" parent="1">
          <mxGeometry x="350" y="370" width="20" height="20" as="geometry" />
        </mxCell>
        <mxCell id="GkhUkE4MOTt1ALrYK7Hf-29" value="" style="ellipse;whiteSpace=wrap;html=1;aspect=fixed;" vertex="1" parent="1">
          <mxGeometry x="430" y="520" width="20" height="20" as="geometry" />
        </mxCell>
        <mxCell id="GkhUkE4MOTt1ALrYK7Hf-30" value="" style="ellipse;whiteSpace=wrap;html=1;aspect=fixed;" vertex="1" parent="1">
          <mxGeometry x="510" y="520" width="20" height="20" as="geometry" />
        </mxCell>
        <mxCell id="GkhUkE4MOTt1ALrYK7Hf-31" value="" style="endArrow=none;html=1;rounded=0;strokeWidth=5;strokeColor=#FF800E;dashed=1;" edge="1" parent="1" source="GkhUkE4MOTt1ALrYK7Hf-37" target="GkhUkE4MOTt1ALrYK7Hf-39">
          <mxGeometry width="50" height="50" relative="1" as="geometry">
            <mxPoint x="40" y="389.5" as="sourcePoint" />
            <mxPoint x="780" y="389.5" as="targetPoint" />
          </mxGeometry>
        </mxCell>
        <mxCell id="GkhUkE4MOTt1ALrYK7Hf-32" value="" style="endArrow=none;html=1;rounded=0;strokeWidth=5;strokeColor=#FF800E;dashed=1;" edge="1" parent="1" source="GkhUkE4MOTt1ALrYK7Hf-38" target="GkhUkE4MOTt1ALrYK7Hf-39">
          <mxGeometry width="50" height="50" relative="1" as="geometry">
            <mxPoint x="60" y="462" as="sourcePoint" />
            <mxPoint x="120" y="478" as="targetPoint" />
          </mxGeometry>
        </mxCell>
        <mxCell id="GkhUkE4MOTt1ALrYK7Hf-33" value="" style="endArrow=none;html=1;rounded=0;strokeWidth=5;strokeColor=#FF800E;dashed=1;" edge="1" parent="1" source="GkhUkE4MOTt1ALrYK7Hf-40" target="GkhUkE4MOTt1ALrYK7Hf-38">
          <mxGeometry width="50" height="50" relative="1" as="geometry">
            <mxPoint x="350" y="470" as="sourcePoint" />
            <mxPoint x="140" y="479" as="targetPoint" />
          </mxGeometry>
        </mxCell>
        <mxCell id="GkhUkE4MOTt1ALrYK7Hf-34" value="" style="endArrow=none;html=1;rounded=0;strokeWidth=5;strokeColor=#FF800E;dashed=1;" edge="1" parent="1" source="GkhUkE4MOTt1ALrYK7Hf-41" target="GkhUkE4MOTt1ALrYK7Hf-40">
          <mxGeometry width="50" height="50" relative="1" as="geometry">
            <mxPoint x="284" y="368" as="sourcePoint" />
            <mxPoint x="216" y="462" as="targetPoint" />
          </mxGeometry>
        </mxCell>
        <mxCell id="GkhUkE4MOTt1ALrYK7Hf-35" value="" style="endArrow=none;html=1;rounded=0;strokeWidth=5;strokeColor=#FF800E;dashed=1;" edge="1" parent="1" source="GkhUkE4MOTt1ALrYK7Hf-41" target="GkhUkE4MOTt1ALrYK7Hf-42">
          <mxGeometry width="50" height="50" relative="1" as="geometry">
            <mxPoint x="361" y="396" as="sourcePoint" />
            <mxPoint x="299" y="364" as="targetPoint" />
          </mxGeometry>
        </mxCell>
        <mxCell id="GkhUkE4MOTt1ALrYK7Hf-36" value="" style="endArrow=none;html=1;rounded=0;strokeWidth=5;strokeColor=#FF800E;dashed=1;" edge="1" parent="1" source="GkhUkE4MOTt1ALrYK7Hf-42" target="GkhUkE4MOTt1ALrYK7Hf-43">
          <mxGeometry width="50" height="50" relative="1" as="geometry">
            <mxPoint x="376" y="408" as="sourcePoint" />
            <mxPoint x="444" y="492" as="targetPoint" />
          </mxGeometry>
        </mxCell>
        <mxCell id="GkhUkE4MOTt1ALrYK7Hf-37" value="" style="ellipse;whiteSpace=wrap;html=1;aspect=fixed;strokeColor=#FF800E;" vertex="1" parent="1">
          <mxGeometry x="30" y="440" width="20" height="20" as="geometry" />
        </mxCell>
        <mxCell id="GkhUkE4MOTt1ALrYK7Hf-38" value="" style="ellipse;whiteSpace=wrap;html=1;aspect=fixed;strokeColor=#FF800E;" vertex="1" parent="1">
          <mxGeometry x="190" y="450" width="20" height="20" as="geometry" />
        </mxCell>
        <mxCell id="GkhUkE4MOTt1ALrYK7Hf-39" value="" style="ellipse;whiteSpace=wrap;html=1;aspect=fixed;strokeColor=#FF800E;" vertex="1" parent="1">
          <mxGeometry x="110" y="460" width="20" height="20" as="geometry" />
        </mxCell>
        <mxCell id="GkhUkE4MOTt1ALrYK7Hf-40" value="" style="ellipse;whiteSpace=wrap;html=1;aspect=fixed;strokeColor=#FF800E;" vertex="1" parent="1">
          <mxGeometry x="270" y="340" width="20" height="20" as="geometry" />
        </mxCell>
        <mxCell id="GkhUkE4MOTt1ALrYK7Hf-41" value="" style="ellipse;whiteSpace=wrap;html=1;aspect=fixed;strokeColor=#FF800E;" vertex="1" parent="1">
          <mxGeometry x="350" y="460" width="20" height="20" as="geometry" />
        </mxCell>
        <mxCell id="GkhUkE4MOTt1ALrYK7Hf-42" value="" style="ellipse;whiteSpace=wrap;html=1;aspect=fixed;strokeColor=#FF800E;" vertex="1" parent="1">
          <mxGeometry x="430" y="560" width="20" height="20" as="geometry" />
        </mxCell>
        <mxCell id="GkhUkE4MOTt1ALrYK7Hf-43" value="" style="ellipse;whiteSpace=wrap;html=1;aspect=fixed;strokeColor=#FF800E;" vertex="1" parent="1">
          <mxGeometry x="510" y="560" width="20" height="20" as="geometry" />
        </mxCell>
        <mxCell id="GkhUkE4MOTt1ALrYK7Hf-44" value="" style="endArrow=none;html=1;rounded=0;strokeWidth=5;strokeColor=#FF800E;dashed=1;" edge="1" parent="1" source="GkhUkE4MOTt1ALrYK7Hf-50" target="GkhUkE4MOTt1ALrYK7Hf-52">
          <mxGeometry width="50" height="50" relative="1" as="geometry">
            <mxPoint x="40" y="569.5" as="sourcePoint" />
            <mxPoint x="780" y="569.5" as="targetPoint" />
          </mxGeometry>
        </mxCell>
        <mxCell id="GkhUkE4MOTt1ALrYK7Hf-45" value="" style="endArrow=none;html=1;rounded=0;strokeWidth=5;strokeColor=#FF800E;dashed=1;" edge="1" parent="1" source="GkhUkE4MOTt1ALrYK7Hf-51" target="GkhUkE4MOTt1ALrYK7Hf-52">
          <mxGeometry width="50" height="50" relative="1" as="geometry">
            <mxPoint x="60" y="642" as="sourcePoint" />
            <mxPoint x="120" y="658" as="targetPoint" />
          </mxGeometry>
        </mxCell>
        <mxCell id="GkhUkE4MOTt1ALrYK7Hf-46" value="" style="endArrow=none;html=1;rounded=0;strokeWidth=5;strokeColor=#FF800E;dashed=1;" edge="1" parent="1" source="GkhUkE4MOTt1ALrYK7Hf-53" target="GkhUkE4MOTt1ALrYK7Hf-51">
          <mxGeometry width="50" height="50" relative="1" as="geometry">
            <mxPoint x="350" y="650" as="sourcePoint" />
            <mxPoint x="140" y="659" as="targetPoint" />
          </mxGeometry>
        </mxCell>
        <mxCell id="GkhUkE4MOTt1ALrYK7Hf-47" value="" style="endArrow=none;html=1;rounded=0;strokeWidth=5;strokeColor=#FF800E;dashed=1;" edge="1" parent="1" source="GkhUkE4MOTt1ALrYK7Hf-54" target="GkhUkE4MOTt1ALrYK7Hf-53">
          <mxGeometry width="50" height="50" relative="1" as="geometry">
            <mxPoint x="284" y="548" as="sourcePoint" />
            <mxPoint x="216" y="642" as="targetPoint" />
          </mxGeometry>
        </mxCell>
        <mxCell id="GkhUkE4MOTt1ALrYK7Hf-48" value="" style="endArrow=none;html=1;rounded=0;strokeWidth=5;strokeColor=#FF800E;dashed=1;" edge="1" parent="1" source="GkhUkE4MOTt1ALrYK7Hf-54" target="GkhUkE4MOTt1ALrYK7Hf-55">
          <mxGeometry width="50" height="50" relative="1" as="geometry">
            <mxPoint x="361" y="576" as="sourcePoint" />
            <mxPoint x="299" y="544" as="targetPoint" />
          </mxGeometry>
        </mxCell>
        <mxCell id="GkhUkE4MOTt1ALrYK7Hf-49" value="" style="endArrow=none;html=1;rounded=0;strokeWidth=5;strokeColor=#FF800E;dashed=1;" edge="1" parent="1" source="GkhUkE4MOTt1ALrYK7Hf-55" target="GkhUkE4MOTt1ALrYK7Hf-56">
          <mxGeometry width="50" height="50" relative="1" as="geometry">
            <mxPoint x="376" y="588" as="sourcePoint" />
            <mxPoint x="444" y="672" as="targetPoint" />
          </mxGeometry>
        </mxCell>
        <mxCell id="GkhUkE4MOTt1ALrYK7Hf-50" value="" style="ellipse;whiteSpace=wrap;html=1;aspect=fixed;strokeColor=#FF800E;" vertex="1" parent="1">
          <mxGeometry x="30" y="620" width="20" height="20" as="geometry" />
        </mxCell>
        <mxCell id="GkhUkE4MOTt1ALrYK7Hf-51" value="" style="ellipse;whiteSpace=wrap;html=1;aspect=fixed;strokeColor=#FF800E;" vertex="1" parent="1">
          <mxGeometry x="190" y="630" width="20" height="20" as="geometry" />
        </mxCell>
        <mxCell id="GkhUkE4MOTt1ALrYK7Hf-52" value="" style="ellipse;whiteSpace=wrap;html=1;aspect=fixed;strokeColor=#FF800E;" vertex="1" parent="1">
          <mxGeometry x="110" y="640" width="20" height="20" as="geometry" />
        </mxCell>
        <mxCell id="GkhUkE4MOTt1ALrYK7Hf-53" value="" style="ellipse;whiteSpace=wrap;html=1;aspect=fixed;strokeColor=#FF800E;" vertex="1" parent="1">
          <mxGeometry x="270" y="520" width="20" height="20" as="geometry" />
        </mxCell>
        <mxCell id="GkhUkE4MOTt1ALrYK7Hf-54" value="" style="ellipse;whiteSpace=wrap;html=1;aspect=fixed;strokeColor=#FF800E;" vertex="1" parent="1">
          <mxGeometry x="350" y="530" width="20" height="20" as="geometry" />
        </mxCell>
        <mxCell id="GkhUkE4MOTt1ALrYK7Hf-55" value="" style="ellipse;whiteSpace=wrap;html=1;aspect=fixed;strokeColor=#FF800E;" vertex="1" parent="1">
          <mxGeometry x="430" y="660" width="20" height="20" as="geometry" />
        </mxCell>
        <mxCell id="GkhUkE4MOTt1ALrYK7Hf-56" value="" style="ellipse;whiteSpace=wrap;html=1;aspect=fixed;strokeColor=#FF800E;" vertex="1" parent="1">
          <mxGeometry x="510" y="600" width="20" height="20" as="geometry" />
        </mxCell>
        <mxCell id="GkhUkE4MOTt1ALrYK7Hf-62" value="" style="endArrow=classic;html=1;rounded=0;strokeWidth=7;" edge="1" parent="1">
          <mxGeometry width="50" height="50" relative="1" as="geometry">
            <mxPoint x="-349" y="648" as="sourcePoint" />
            <mxPoint x="-350" y="535" as="targetPoint" />
          </mxGeometry>
        </mxCell>
        <mxCell id="GkhUkE4MOTt1ALrYK7Hf-63" value="" style="endArrow=classic;html=1;rounded=0;strokeWidth=7;" edge="1" parent="1">
          <mxGeometry width="50" height="50" relative="1" as="geometry">
            <mxPoint x="-352" y="645" as="sourcePoint" />
            <mxPoint x="-242" y="645" as="targetPoint" />
          </mxGeometry>
        </mxCell>
        <mxCell id="GkhUkE4MOTt1ALrYK7Hf-65" value="&lt;font style=&quot;font-size: 30px;&quot;&gt;\(X,Y\)&lt;/font&gt;" style="text;html=1;align=center;verticalAlign=middle;whiteSpace=wrap;rounded=0;" vertex="1" parent="1">
          <mxGeometry x="-240" y="625" width="70" height="39" as="geometry" />
        </mxCell>
        <mxCell id="GkhUkE4MOTt1ALrYK7Hf-94" value="" style="endArrow=none;html=1;rounded=0;strokeWidth=5;strokeColor=#FF800E;dashed=1;" edge="1" parent="1" source="GkhUkE4MOTt1ALrYK7Hf-100" target="GkhUkE4MOTt1ALrYK7Hf-102">
          <mxGeometry width="50" height="50" relative="1" as="geometry">
            <mxPoint x="1040" y="379.5" as="sourcePoint" />
            <mxPoint x="1780" y="379.5" as="targetPoint" />
          </mxGeometry>
        </mxCell>
        <mxCell id="GkhUkE4MOTt1ALrYK7Hf-95" value="" style="endArrow=none;html=1;rounded=0;strokeWidth=5;strokeColor=#FF800E;dashed=1;" edge="1" parent="1" source="GkhUkE4MOTt1ALrYK7Hf-101" target="GkhUkE4MOTt1ALrYK7Hf-102">
          <mxGeometry width="50" height="50" relative="1" as="geometry">
            <mxPoint x="1060" y="452" as="sourcePoint" />
            <mxPoint x="1120" y="468" as="targetPoint" />
          </mxGeometry>
        </mxCell>
        <mxCell id="GkhUkE4MOTt1ALrYK7Hf-96" value="" style="endArrow=none;html=1;rounded=0;strokeWidth=5;strokeColor=#FF800E;dashed=1;" edge="1" parent="1" source="GkhUkE4MOTt1ALrYK7Hf-103" target="GkhUkE4MOTt1ALrYK7Hf-101">
          <mxGeometry width="50" height="50" relative="1" as="geometry">
            <mxPoint x="1350" y="460" as="sourcePoint" />
            <mxPoint x="1140" y="469" as="targetPoint" />
          </mxGeometry>
        </mxCell>
        <mxCell id="GkhUkE4MOTt1ALrYK7Hf-97" value="" style="endArrow=none;html=1;rounded=0;strokeWidth=5;strokeColor=#FF800E;dashed=1;" edge="1" parent="1" source="GkhUkE4MOTt1ALrYK7Hf-104" target="GkhUkE4MOTt1ALrYK7Hf-103">
          <mxGeometry width="50" height="50" relative="1" as="geometry">
            <mxPoint x="1284" y="358" as="sourcePoint" />
            <mxPoint x="1216" y="452" as="targetPoint" />
          </mxGeometry>
        </mxCell>
        <mxCell id="GkhUkE4MOTt1ALrYK7Hf-98" value="" style="endArrow=none;html=1;rounded=0;strokeWidth=5;strokeColor=#FF800E;dashed=1;" edge="1" parent="1" source="GkhUkE4MOTt1ALrYK7Hf-104" target="GkhUkE4MOTt1ALrYK7Hf-105">
          <mxGeometry width="50" height="50" relative="1" as="geometry">
            <mxPoint x="1361" y="386" as="sourcePoint" />
            <mxPoint x="1299" y="354" as="targetPoint" />
          </mxGeometry>
        </mxCell>
        <mxCell id="GkhUkE4MOTt1ALrYK7Hf-99" value="" style="endArrow=none;html=1;rounded=0;strokeWidth=5;strokeColor=#FF800E;dashed=1;" edge="1" parent="1" source="GkhUkE4MOTt1ALrYK7Hf-105" target="GkhUkE4MOTt1ALrYK7Hf-106">
          <mxGeometry width="50" height="50" relative="1" as="geometry">
            <mxPoint x="1376" y="398" as="sourcePoint" />
            <mxPoint x="1444" y="482" as="targetPoint" />
          </mxGeometry>
        </mxCell>
        <mxCell id="GkhUkE4MOTt1ALrYK7Hf-100" value="" style="ellipse;whiteSpace=wrap;html=1;aspect=fixed;strokeColor=#FF800E;" vertex="1" parent="1">
          <mxGeometry x="1030" y="430" width="20" height="20" as="geometry" />
        </mxCell>
        <mxCell id="GkhUkE4MOTt1ALrYK7Hf-101" value="" style="ellipse;whiteSpace=wrap;html=1;aspect=fixed;strokeColor=#FF800E;" vertex="1" parent="1">
          <mxGeometry x="1190" y="440" width="20" height="20" as="geometry" />
        </mxCell>
        <mxCell id="GkhUkE4MOTt1ALrYK7Hf-102" value="" style="ellipse;whiteSpace=wrap;html=1;aspect=fixed;strokeColor=#FF800E;" vertex="1" parent="1">
          <mxGeometry x="1110" y="450" width="20" height="20" as="geometry" />
        </mxCell>
        <mxCell id="GkhUkE4MOTt1ALrYK7Hf-103" value="" style="ellipse;whiteSpace=wrap;html=1;aspect=fixed;strokeColor=#FF800E;" vertex="1" parent="1">
          <mxGeometry x="1270" y="330" width="20" height="20" as="geometry" />
        </mxCell>
        <mxCell id="GkhUkE4MOTt1ALrYK7Hf-104" value="" style="ellipse;whiteSpace=wrap;html=1;aspect=fixed;strokeColor=#FF800E;" vertex="1" parent="1">
          <mxGeometry x="1350" y="356" width="20" height="20" as="geometry" />
        </mxCell>
        <mxCell id="GkhUkE4MOTt1ALrYK7Hf-105" value="" style="ellipse;whiteSpace=wrap;html=1;aspect=fixed;strokeColor=#FF800E;" vertex="1" parent="1">
          <mxGeometry x="1430" y="365.5" width="20" height="20" as="geometry" />
        </mxCell>
        <mxCell id="GkhUkE4MOTt1ALrYK7Hf-106" value="" style="ellipse;whiteSpace=wrap;html=1;aspect=fixed;strokeColor=#FF800E;" vertex="1" parent="1">
          <mxGeometry x="1510" y="395" width="20" height="20" as="geometry" />
        </mxCell>
        <mxCell id="GkhUkE4MOTt1ALrYK7Hf-107" value="" style="endArrow=none;html=1;rounded=0;strokeWidth=5;strokeColor=#FF800E;dashed=1;" edge="1" parent="1" source="GkhUkE4MOTt1ALrYK7Hf-113" target="GkhUkE4MOTt1ALrYK7Hf-115">
          <mxGeometry width="50" height="50" relative="1" as="geometry">
            <mxPoint x="1040" y="559.5" as="sourcePoint" />
            <mxPoint x="1780" y="559.5" as="targetPoint" />
          </mxGeometry>
        </mxCell>
        <mxCell id="GkhUkE4MOTt1ALrYK7Hf-108" value="" style="endArrow=none;html=1;rounded=0;strokeWidth=5;strokeColor=#FF800E;dashed=1;" edge="1" parent="1" source="GkhUkE4MOTt1ALrYK7Hf-114" target="GkhUkE4MOTt1ALrYK7Hf-115">
          <mxGeometry width="50" height="50" relative="1" as="geometry">
            <mxPoint x="1060" y="632" as="sourcePoint" />
            <mxPoint x="1120" y="648" as="targetPoint" />
          </mxGeometry>
        </mxCell>
        <mxCell id="GkhUkE4MOTt1ALrYK7Hf-109" value="" style="endArrow=none;html=1;rounded=0;strokeWidth=5;strokeColor=#FF800E;dashed=1;" edge="1" parent="1" source="GkhUkE4MOTt1ALrYK7Hf-116" target="GkhUkE4MOTt1ALrYK7Hf-114">
          <mxGeometry width="50" height="50" relative="1" as="geometry">
            <mxPoint x="1350" y="640" as="sourcePoint" />
            <mxPoint x="1140" y="649" as="targetPoint" />
          </mxGeometry>
        </mxCell>
        <mxCell id="GkhUkE4MOTt1ALrYK7Hf-110" value="" style="endArrow=none;html=1;rounded=0;strokeWidth=5;strokeColor=#FF800E;dashed=1;" edge="1" parent="1" source="GkhUkE4MOTt1ALrYK7Hf-117" target="GkhUkE4MOTt1ALrYK7Hf-116">
          <mxGeometry width="50" height="50" relative="1" as="geometry">
            <mxPoint x="1284" y="538" as="sourcePoint" />
            <mxPoint x="1216" y="632" as="targetPoint" />
          </mxGeometry>
        </mxCell>
        <mxCell id="GkhUkE4MOTt1ALrYK7Hf-111" value="" style="endArrow=none;html=1;rounded=0;strokeWidth=5;strokeColor=#FF800E;dashed=1;" edge="1" parent="1" source="GkhUkE4MOTt1ALrYK7Hf-117" target="GkhUkE4MOTt1ALrYK7Hf-118">
          <mxGeometry width="50" height="50" relative="1" as="geometry">
            <mxPoint x="1361" y="566" as="sourcePoint" />
            <mxPoint x="1299" y="534" as="targetPoint" />
          </mxGeometry>
        </mxCell>
        <mxCell id="GkhUkE4MOTt1ALrYK7Hf-112" value="" style="endArrow=none;html=1;rounded=0;strokeWidth=5;strokeColor=#FF800E;dashed=1;" edge="1" parent="1" source="GkhUkE4MOTt1ALrYK7Hf-118" target="GkhUkE4MOTt1ALrYK7Hf-119">
          <mxGeometry width="50" height="50" relative="1" as="geometry">
            <mxPoint x="1376" y="578" as="sourcePoint" />
            <mxPoint x="1444" y="662" as="targetPoint" />
          </mxGeometry>
        </mxCell>
        <mxCell id="GkhUkE4MOTt1ALrYK7Hf-113" value="" style="ellipse;whiteSpace=wrap;html=1;aspect=fixed;strokeColor=#FF800E;" vertex="1" parent="1">
          <mxGeometry x="1030" y="610" width="20" height="20" as="geometry" />
        </mxCell>
        <mxCell id="GkhUkE4MOTt1ALrYK7Hf-114" value="" style="ellipse;whiteSpace=wrap;html=1;aspect=fixed;strokeColor=#FF800E;" vertex="1" parent="1">
          <mxGeometry x="1190" y="620" width="20" height="20" as="geometry" />
        </mxCell>
        <mxCell id="GkhUkE4MOTt1ALrYK7Hf-115" value="" style="ellipse;whiteSpace=wrap;html=1;aspect=fixed;strokeColor=#FF800E;" vertex="1" parent="1">
          <mxGeometry x="1110" y="630" width="20" height="20" as="geometry" />
        </mxCell>
        <mxCell id="GkhUkE4MOTt1ALrYK7Hf-116" value="" style="ellipse;whiteSpace=wrap;html=1;aspect=fixed;strokeColor=#FF800E;" vertex="1" parent="1">
          <mxGeometry x="1270" y="510" width="20" height="20" as="geometry" />
        </mxCell>
        <mxCell id="GkhUkE4MOTt1ALrYK7Hf-117" value="" style="ellipse;whiteSpace=wrap;html=1;aspect=fixed;strokeColor=#FF800E;" vertex="1" parent="1">
          <mxGeometry x="1350" y="520" width="20" height="20" as="geometry" />
        </mxCell>
        <mxCell id="GkhUkE4MOTt1ALrYK7Hf-118" value="" style="ellipse;whiteSpace=wrap;html=1;aspect=fixed;strokeColor=#FF800E;" vertex="1" parent="1">
          <mxGeometry x="1430" y="650" width="20" height="20" as="geometry" />
        </mxCell>
        <mxCell id="GkhUkE4MOTt1ALrYK7Hf-119" value="" style="ellipse;whiteSpace=wrap;html=1;aspect=fixed;strokeColor=#FF800E;" vertex="1" parent="1">
          <mxGeometry x="1510" y="590" width="20" height="20" as="geometry" />
        </mxCell>
        <mxCell id="GkhUkE4MOTt1ALrYK7Hf-120" value="" style="endArrow=classic;html=1;rounded=0;strokeWidth=7;" edge="1" parent="1">
          <mxGeometry width="50" height="50" relative="1" as="geometry">
            <mxPoint x="811" y="652" as="sourcePoint" />
            <mxPoint x="810" y="539" as="targetPoint" />
          </mxGeometry>
        </mxCell>
        <mxCell id="GkhUkE4MOTt1ALrYK7Hf-121" value="" style="endArrow=classic;html=1;rounded=0;strokeWidth=7;" edge="1" parent="1">
          <mxGeometry width="50" height="50" relative="1" as="geometry">
            <mxPoint x="808" y="649" as="sourcePoint" />
            <mxPoint x="918" y="649" as="targetPoint" />
          </mxGeometry>
        </mxCell>
        <mxCell id="GkhUkE4MOTt1ALrYK7Hf-122" value="&lt;font style=&quot;font-size: 30px;&quot;&gt;\(X,Y\)&lt;/font&gt;" style="text;html=1;align=center;verticalAlign=middle;whiteSpace=wrap;rounded=0;" vertex="1" parent="1">
          <mxGeometry x="920" y="629" width="70" height="39" as="geometry" />
        </mxCell>
        <mxCell id="GkhUkE4MOTt1ALrYK7Hf-123" value="&lt;font style=&quot;font-size: 30px;&quot;&gt;\(Z_{size}\)&lt;/font&gt;" style="text;html=1;align=center;verticalAlign=middle;whiteSpace=wrap;rounded=0;" vertex="1" parent="1">
          <mxGeometry x="1310" y="415" width="40" height="39" as="geometry" />
        </mxCell>
        <mxCell id="GkhUkE4MOTt1ALrYK7Hf-127" value="&lt;font style=&quot;font-size: 30px;&quot;&gt;\(\mathrm{Accurate~intervals}\)&lt;/font&gt;" style="text;html=1;align=center;verticalAlign=middle;whiteSpace=wrap;rounded=0;" vertex="1" parent="1">
          <mxGeometry x="20" y="270" width="290" height="39" as="geometry" />
        </mxCell>
        <mxCell id="GkhUkE4MOTt1ALrYK7Hf-129" value="&lt;font style=&quot;font-size: 30px;&quot;&gt;\(\mathrm{Wrong~intervals}\)&lt;/font&gt;" style="text;html=1;align=center;verticalAlign=middle;whiteSpace=wrap;rounded=0;" vertex="1" parent="1">
          <mxGeometry x="299.13" y="730" width="290" height="39" as="geometry" />
        </mxCell>
        <mxCell id="GkhUkE4MOTt1ALrYK7Hf-132" value="" style="endArrow=none;html=1;rounded=0;strokeWidth=5;strokeColor=#FF800E;dashed=1;" edge="1" parent="1">
          <mxGeometry width="50" height="50" relative="1" as="geometry">
            <mxPoint x="680" y="450.24" as="sourcePoint" />
            <mxPoint x="750" y="450.24" as="targetPoint" />
          </mxGeometry>
        </mxCell>
        <mxCell id="GkhUkE4MOTt1ALrYK7Hf-135" value="&lt;div align=&quot;left&quot;&gt;&lt;font style=&quot;font-size: 30px;&quot;&gt;\(\underline{\mathrm{DSM}}\), &lt;/font&gt;&lt;font style=&quot;font-size: 30px;&quot;&gt;\(\overline{\mathrm{DSM}}\)&lt;/font&gt;&lt;/div&gt;" style="text;html=1;align=left;verticalAlign=middle;whiteSpace=wrap;rounded=0;" vertex="1" parent="1">
          <mxGeometry x="760" y="431" width="190" height="39" as="geometry" />
        </mxCell>
        <mxCell id="GkhUkE4MOTt1ALrYK7Hf-140" value="&lt;font style=&quot;font-size: 30px;&quot;&gt;\(Z\)&lt;/font&gt;" style="text;html=1;align=center;verticalAlign=middle;whiteSpace=wrap;rounded=0;" vertex="1" parent="1">
          <mxGeometry x="-370" y="496" width="40" height="39" as="geometry" />
        </mxCell>
        <mxCell id="GkhUkE4MOTt1ALrYK7Hf-143" value="" style="shape=curlyBracket;whiteSpace=wrap;html=1;rounded=1;labelPosition=left;verticalLabelPosition=middle;align=right;verticalAlign=middle;rotation=90;strokeWidth=4;size=0.3305263157894762;" vertex="1" parent="1">
          <mxGeometry x="145.87" y="198.63" width="42.75" height="274.5" as="geometry" />
        </mxCell>
        <mxCell id="GkhUkE4MOTt1ALrYK7Hf-144" value="" style="shape=curlyBracket;whiteSpace=wrap;html=1;rounded=1;labelPosition=left;verticalLabelPosition=middle;align=right;verticalAlign=middle;rotation=-90;strokeWidth=4;size=0.3305263157894762;" vertex="1" parent="1">
          <mxGeometry x="422.75" y="597.25" width="42.75" height="200" as="geometry" />
        </mxCell>
        <mxCell id="GkhUkE4MOTt1ALrYK7Hf-148" value="&lt;font style=&quot;font-size: 30px;&quot;&gt;\(Z_{acc}=\frac{\#\mathrm{Accurate~intervals}}{\#\mathrm{Accurate~intervals}+\#\mathrm{Wrong~intervals}}\)&lt;/font&gt;" style="text;html=1;align=center;verticalAlign=middle;whiteSpace=wrap;rounded=0;" vertex="1" parent="1">
          <mxGeometry x="-370" y="700" width="580" height="60" as="geometry" />
        </mxCell>
        <mxCell id="GkhUkE4MOTt1ALrYK7Hf-149" value="" style="shape=flexArrow;endArrow=classic;startArrow=classic;html=1;rounded=0;fillColor=#000000;width=12.258064516129032;endSize=7.890322580645162;startSize=7.890322580645162;endWidth=15.962539021852237;startWidth=15.962539021852237;" edge="1" parent="1">
          <mxGeometry width="100" height="100" relative="1" as="geometry">
            <mxPoint x="1279" y="500" as="sourcePoint" />
            <mxPoint x="1279" y="360" as="targetPoint" />
          </mxGeometry>
        </mxCell>
        <mxCell id="GkhUkE4MOTt1ALrYK7Hf-197" value="" style="rounded=1;whiteSpace=wrap;html=1;" vertex="1" parent="1">
          <mxGeometry x="-370" y="350" width="290" height="119" as="geometry" />
        </mxCell>
        <mxCell id="GkhUkE4MOTt1ALrYK7Hf-200" value="" style="endArrow=none;html=1;rounded=0;strokeWidth=5;strokeColor=#006BA4;" edge="1" parent="1">
          <mxGeometry width="50" height="50" relative="1" as="geometry">
            <mxPoint x="-360" y="383.46999999999997" as="sourcePoint" />
            <mxPoint x="-290" y="383.84" as="targetPoint" />
          </mxGeometry>
        </mxCell>
        <mxCell id="GkhUkE4MOTt1ALrYK7Hf-201" value="" style="endArrow=none;html=1;rounded=0;strokeWidth=5;strokeColor=#FF800E;dashed=1;" edge="1" parent="1">
          <mxGeometry width="50" height="50" relative="1" as="geometry">
            <mxPoint x="-360" y="434.24" as="sourcePoint" />
            <mxPoint x="-290" y="434.24" as="targetPoint" />
          </mxGeometry>
        </mxCell>
        <mxCell id="GkhUkE4MOTt1ALrYK7Hf-202" value="&lt;div align=&quot;left&quot;&gt;&lt;font style=&quot;font-size: 30px;&quot;&gt;\(\underline{\mathrm{DSM}}\), &lt;/font&gt;&lt;font style=&quot;font-size: 30px;&quot;&gt;\(\overline{\mathrm{DSM}}\)&lt;/font&gt;&lt;/div&gt;" style="text;html=1;align=left;verticalAlign=middle;whiteSpace=wrap;rounded=0;" vertex="1" parent="1">
          <mxGeometry x="-280" y="415" width="190" height="39" as="geometry" />
        </mxCell>
        <mxCell id="GkhUkE4MOTt1ALrYK7Hf-203" value="&lt;div align=&quot;left&quot;&gt;&lt;font style=&quot;font-size: 30px;&quot;&gt;\(\mathrm{DSM}_{true}\)&lt;/font&gt;&lt;/div&gt;" style="text;html=1;align=left;verticalAlign=middle;whiteSpace=wrap;rounded=0;" vertex="1" parent="1">
          <mxGeometry x="-280" y="365" width="180" height="39" as="geometry" />
        </mxCell>
        <mxCell id="GkhUkE4MOTt1ALrYK7Hf-204" value="" style="endArrow=none;html=1;rounded=0;strokeWidth=5;strokeColor=#006BA4;" edge="1" parent="1" source="GkhUkE4MOTt1ALrYK7Hf-210" target="GkhUkE4MOTt1ALrYK7Hf-212">
          <mxGeometry width="50" height="50" relative="1" as="geometry">
            <mxPoint x="1000" y="979.5" as="sourcePoint" />
            <mxPoint x="1740" y="979.5" as="targetPoint" />
          </mxGeometry>
        </mxCell>
        <mxCell id="GkhUkE4MOTt1ALrYK7Hf-205" value="" style="endArrow=none;html=1;rounded=0;strokeWidth=5;strokeColor=#006BA4;" edge="1" parent="1" source="GkhUkE4MOTt1ALrYK7Hf-211" target="GkhUkE4MOTt1ALrYK7Hf-212">
          <mxGeometry width="50" height="50" relative="1" as="geometry">
            <mxPoint x="1020" y="1052" as="sourcePoint" />
            <mxPoint x="1080" y="1068" as="targetPoint" />
          </mxGeometry>
        </mxCell>
        <mxCell id="GkhUkE4MOTt1ALrYK7Hf-206" value="" style="endArrow=none;html=1;rounded=0;strokeWidth=5;strokeColor=#006BA4;" edge="1" parent="1" source="GkhUkE4MOTt1ALrYK7Hf-213" target="GkhUkE4MOTt1ALrYK7Hf-211">
          <mxGeometry width="50" height="50" relative="1" as="geometry">
            <mxPoint x="1330" y="1060" as="sourcePoint" />
            <mxPoint x="1120" y="1069" as="targetPoint" />
          </mxGeometry>
        </mxCell>
        <mxCell id="GkhUkE4MOTt1ALrYK7Hf-207" value="" style="endArrow=none;html=1;rounded=0;strokeWidth=5;strokeColor=#006BA4;" edge="1" parent="1" source="GkhUkE4MOTt1ALrYK7Hf-214" target="GkhUkE4MOTt1ALrYK7Hf-213">
          <mxGeometry width="50" height="50" relative="1" as="geometry">
            <mxPoint x="1264" y="958" as="sourcePoint" />
            <mxPoint x="1196" y="1052" as="targetPoint" />
          </mxGeometry>
        </mxCell>
        <mxCell id="GkhUkE4MOTt1ALrYK7Hf-208" value="" style="endArrow=none;html=1;rounded=0;strokeWidth=5;strokeColor=#006BA4;" edge="1" parent="1" source="GkhUkE4MOTt1ALrYK7Hf-214" target="GkhUkE4MOTt1ALrYK7Hf-215">
          <mxGeometry width="50" height="50" relative="1" as="geometry">
            <mxPoint x="1341" y="986" as="sourcePoint" />
            <mxPoint x="1279" y="954" as="targetPoint" />
          </mxGeometry>
        </mxCell>
        <mxCell id="GkhUkE4MOTt1ALrYK7Hf-209" value="" style="endArrow=none;html=1;rounded=0;strokeWidth=5;strokeColor=#006BA4;" edge="1" parent="1" source="GkhUkE4MOTt1ALrYK7Hf-215" target="GkhUkE4MOTt1ALrYK7Hf-216">
          <mxGeometry width="50" height="50" relative="1" as="geometry">
            <mxPoint x="1356" y="998" as="sourcePoint" />
            <mxPoint x="1424" y="1082" as="targetPoint" />
          </mxGeometry>
        </mxCell>
        <mxCell id="GkhUkE4MOTt1ALrYK7Hf-210" value="" style="ellipse;whiteSpace=wrap;html=1;aspect=fixed;" vertex="1" parent="1">
          <mxGeometry x="990" y="1000" width="20" height="20" as="geometry" />
        </mxCell>
        <mxCell id="GkhUkE4MOTt1ALrYK7Hf-211" value="" style="ellipse;whiteSpace=wrap;html=1;aspect=fixed;" vertex="1" parent="1">
          <mxGeometry x="1150" y="1000" width="20" height="20" as="geometry" />
        </mxCell>
        <mxCell id="GkhUkE4MOTt1ALrYK7Hf-212" value="" style="ellipse;whiteSpace=wrap;html=1;aspect=fixed;" vertex="1" parent="1">
          <mxGeometry x="1070" y="1000" width="20" height="20" as="geometry" />
        </mxCell>
        <mxCell id="GkhUkE4MOTt1ALrYK7Hf-213" value="" style="ellipse;whiteSpace=wrap;html=1;aspect=fixed;" vertex="1" parent="1">
          <mxGeometry x="1230" y="800" width="20" height="20" as="geometry" />
        </mxCell>
        <mxCell id="GkhUkE4MOTt1ALrYK7Hf-214" value="" style="ellipse;whiteSpace=wrap;html=1;aspect=fixed;" vertex="1" parent="1">
          <mxGeometry x="1310" y="770" width="20" height="20" as="geometry" />
        </mxCell>
        <mxCell id="GkhUkE4MOTt1ALrYK7Hf-215" value="" style="ellipse;whiteSpace=wrap;html=1;aspect=fixed;" vertex="1" parent="1">
          <mxGeometry x="1390" y="1000" width="20" height="20" as="geometry" />
        </mxCell>
        <mxCell id="GkhUkE4MOTt1ALrYK7Hf-216" value="" style="ellipse;whiteSpace=wrap;html=1;aspect=fixed;" vertex="1" parent="1">
          <mxGeometry x="1470" y="1000" width="20" height="20" as="geometry" />
        </mxCell>
        <mxCell id="GkhUkE4MOTt1ALrYK7Hf-217" value="" style="endArrow=none;html=1;rounded=0;strokeWidth=5;strokeColor=#FF800E;dashed=1;" edge="1" parent="1" source="GkhUkE4MOTt1ALrYK7Hf-223" target="GkhUkE4MOTt1ALrYK7Hf-225">
          <mxGeometry width="50" height="50" relative="1" as="geometry">
            <mxPoint x="1001" y="1049.5" as="sourcePoint" />
            <mxPoint x="1741" y="1049.5" as="targetPoint" />
          </mxGeometry>
        </mxCell>
        <mxCell id="GkhUkE4MOTt1ALrYK7Hf-218" value="" style="endArrow=none;html=1;rounded=0;strokeWidth=5;strokeColor=#FF800E;dashed=1;" edge="1" parent="1" source="GkhUkE4MOTt1ALrYK7Hf-224" target="GkhUkE4MOTt1ALrYK7Hf-225">
          <mxGeometry width="50" height="50" relative="1" as="geometry">
            <mxPoint x="1021" y="1122" as="sourcePoint" />
            <mxPoint x="1081" y="1138" as="targetPoint" />
          </mxGeometry>
        </mxCell>
        <mxCell id="GkhUkE4MOTt1ALrYK7Hf-219" value="" style="endArrow=none;html=1;rounded=0;strokeWidth=5;strokeColor=#FF800E;dashed=1;" edge="1" parent="1" target="GkhUkE4MOTt1ALrYK7Hf-224" source="GkhUkE4MOTt1ALrYK7Hf-230">
          <mxGeometry width="50" height="50" relative="1" as="geometry">
            <mxPoint x="1264" y="1018" as="sourcePoint" />
            <mxPoint x="1130" y="1139" as="targetPoint" />
          </mxGeometry>
        </mxCell>
        <mxCell id="GkhUkE4MOTt1ALrYK7Hf-220" value="" style="endArrow=none;html=1;rounded=0;strokeWidth=5;strokeColor=#FF800E;dashed=1;" edge="1" parent="1" source="GkhUkE4MOTt1ALrYK7Hf-226" target="GkhUkE4MOTt1ALrYK7Hf-230">
          <mxGeometry width="50" height="50" relative="1" as="geometry">
            <mxPoint x="1274" y="1028" as="sourcePoint" />
            <mxPoint x="1280" y="1011" as="targetPoint" />
          </mxGeometry>
        </mxCell>
        <mxCell id="GkhUkE4MOTt1ALrYK7Hf-221" value="" style="endArrow=none;html=1;rounded=0;strokeWidth=5;strokeColor=#FF800E;dashed=1;" edge="1" parent="1" source="GkhUkE4MOTt1ALrYK7Hf-226" target="GkhUkE4MOTt1ALrYK7Hf-227">
          <mxGeometry width="50" height="50" relative="1" as="geometry">
            <mxPoint x="1326.217351680923" y="1028.5310750458339" as="sourcePoint" />
            <mxPoint x="1260" y="1024" as="targetPoint" />
          </mxGeometry>
        </mxCell>
        <mxCell id="GkhUkE4MOTt1ALrYK7Hf-222" value="" style="endArrow=none;html=1;rounded=0;strokeWidth=5;strokeColor=#FF800E;dashed=1;" edge="1" parent="1" source="GkhUkE4MOTt1ALrYK7Hf-227" target="GkhUkE4MOTt1ALrYK7Hf-228">
          <mxGeometry width="50" height="50" relative="1" as="geometry">
            <mxPoint x="1337" y="1068" as="sourcePoint" />
            <mxPoint x="1405" y="1152" as="targetPoint" />
          </mxGeometry>
        </mxCell>
        <mxCell id="GkhUkE4MOTt1ALrYK7Hf-223" value="" style="ellipse;whiteSpace=wrap;html=1;aspect=fixed;strokeColor=#FF800E;" vertex="1" parent="1">
          <mxGeometry x="990" y="1040" width="20" height="20" as="geometry" />
        </mxCell>
        <mxCell id="GkhUkE4MOTt1ALrYK7Hf-224" value="" style="ellipse;whiteSpace=wrap;html=1;aspect=fixed;strokeColor=#FF800E;" vertex="1" parent="1">
          <mxGeometry x="1150" y="1040" width="20" height="20" as="geometry" />
        </mxCell>
        <mxCell id="GkhUkE4MOTt1ALrYK7Hf-225" value="" style="ellipse;whiteSpace=wrap;html=1;aspect=fixed;strokeColor=#FF800E;" vertex="1" parent="1">
          <mxGeometry x="1070" y="1060" width="20" height="20" as="geometry" />
        </mxCell>
        <mxCell id="GkhUkE4MOTt1ALrYK7Hf-226" value="" style="ellipse;whiteSpace=wrap;html=1;aspect=fixed;strokeColor=#FF800E;" vertex="1" parent="1">
          <mxGeometry x="1310" y="960" width="20" height="20" as="geometry" />
        </mxCell>
        <mxCell id="GkhUkE4MOTt1ALrYK7Hf-227" value="" style="ellipse;whiteSpace=wrap;html=1;aspect=fixed;strokeColor=#FF800E;" vertex="1" parent="1">
          <mxGeometry x="1391" y="1140" width="20" height="20" as="geometry" />
        </mxCell>
        <mxCell id="GkhUkE4MOTt1ALrYK7Hf-228" value="" style="ellipse;whiteSpace=wrap;html=1;aspect=fixed;strokeColor=#FF800E;" vertex="1" parent="1">
          <mxGeometry x="1471" y="1080" width="20" height="20" as="geometry" />
        </mxCell>
        <mxCell id="GkhUkE4MOTt1ALrYK7Hf-229" value="" style="shape=flexArrow;endArrow=classic;startArrow=classic;html=1;rounded=0;fillColor=#000000;width=12.258064516129032;endSize=7.890322580645162;startSize=7.890322580645162;endWidth=15.962539021852237;startWidth=15.962539021852237;" edge="1" parent="1">
          <mxGeometry width="100" height="100" relative="1" as="geometry">
            <mxPoint x="1439" y="640" as="sourcePoint" />
            <mxPoint x="1439" y="400" as="targetPoint" />
          </mxGeometry>
        </mxCell>
        <mxCell id="GkhUkE4MOTt1ALrYK7Hf-230" value="" style="ellipse;whiteSpace=wrap;html=1;aspect=fixed;strokeColor=#FF800E;" vertex="1" parent="1">
          <mxGeometry x="1230" y="970" width="20" height="20" as="geometry" />
        </mxCell>
        <mxCell id="GkhUkE4MOTt1ALrYK7Hf-235" value="" style="endArrow=none;html=1;rounded=0;strokeWidth=5;strokeColor=#FF800E;dashed=1;" edge="1" parent="1" source="GkhUkE4MOTt1ALrYK7Hf-241" target="GkhUkE4MOTt1ALrYK7Hf-243">
          <mxGeometry width="50" height="50" relative="1" as="geometry">
            <mxPoint x="1001" y="959.5" as="sourcePoint" />
            <mxPoint x="1741" y="959.5" as="targetPoint" />
          </mxGeometry>
        </mxCell>
        <mxCell id="GkhUkE4MOTt1ALrYK7Hf-236" value="" style="endArrow=none;html=1;rounded=0;strokeWidth=5;strokeColor=#FF800E;dashed=1;" edge="1" parent="1" source="GkhUkE4MOTt1ALrYK7Hf-242" target="GkhUkE4MOTt1ALrYK7Hf-243">
          <mxGeometry width="50" height="50" relative="1" as="geometry">
            <mxPoint x="1021" y="1032" as="sourcePoint" />
            <mxPoint x="1081" y="1048" as="targetPoint" />
          </mxGeometry>
        </mxCell>
        <mxCell id="GkhUkE4MOTt1ALrYK7Hf-237" value="" style="endArrow=none;html=1;rounded=0;strokeWidth=5;strokeColor=#FF800E;dashed=1;" edge="1" parent="1" source="GkhUkE4MOTt1ALrYK7Hf-247" target="GkhUkE4MOTt1ALrYK7Hf-242">
          <mxGeometry width="50" height="50" relative="1" as="geometry">
            <mxPoint x="1264" y="928" as="sourcePoint" />
            <mxPoint x="1130" y="1049" as="targetPoint" />
          </mxGeometry>
        </mxCell>
        <mxCell id="GkhUkE4MOTt1ALrYK7Hf-238" value="" style="endArrow=none;html=1;rounded=0;strokeWidth=5;strokeColor=#FF800E;dashed=1;" edge="1" parent="1" source="GkhUkE4MOTt1ALrYK7Hf-244" target="GkhUkE4MOTt1ALrYK7Hf-247">
          <mxGeometry width="50" height="50" relative="1" as="geometry">
            <mxPoint x="1274" y="938" as="sourcePoint" />
            <mxPoint x="1280" y="921" as="targetPoint" />
          </mxGeometry>
        </mxCell>
        <mxCell id="GkhUkE4MOTt1ALrYK7Hf-239" value="" style="endArrow=none;html=1;rounded=0;strokeWidth=5;strokeColor=#FF800E;dashed=1;" edge="1" parent="1" source="GkhUkE4MOTt1ALrYK7Hf-244" target="GkhUkE4MOTt1ALrYK7Hf-245">
          <mxGeometry width="50" height="50" relative="1" as="geometry">
            <mxPoint x="1326.217351680923" y="938.5310750458339" as="sourcePoint" />
            <mxPoint x="1260" y="934" as="targetPoint" />
          </mxGeometry>
        </mxCell>
        <mxCell id="GkhUkE4MOTt1ALrYK7Hf-240" value="" style="endArrow=none;html=1;rounded=0;strokeWidth=5;strokeColor=#FF800E;dashed=1;" edge="1" parent="1" source="GkhUkE4MOTt1ALrYK7Hf-245" target="GkhUkE4MOTt1ALrYK7Hf-246">
          <mxGeometry width="50" height="50" relative="1" as="geometry">
            <mxPoint x="1337" y="978" as="sourcePoint" />
            <mxPoint x="1405" y="1062" as="targetPoint" />
          </mxGeometry>
        </mxCell>
        <mxCell id="GkhUkE4MOTt1ALrYK7Hf-241" value="" style="ellipse;whiteSpace=wrap;html=1;aspect=fixed;strokeColor=#FF800E;" vertex="1" parent="1">
          <mxGeometry x="990" y="950" width="20" height="20" as="geometry" />
        </mxCell>
        <mxCell id="GkhUkE4MOTt1ALrYK7Hf-242" value="" style="ellipse;whiteSpace=wrap;html=1;aspect=fixed;strokeColor=#FF800E;" vertex="1" parent="1">
          <mxGeometry x="1150" y="950" width="20" height="20" as="geometry" />
        </mxCell>
        <mxCell id="GkhUkE4MOTt1ALrYK7Hf-243" value="" style="ellipse;whiteSpace=wrap;html=1;aspect=fixed;strokeColor=#FF800E;" vertex="1" parent="1">
          <mxGeometry x="1070" y="970" width="20" height="20" as="geometry" />
        </mxCell>
        <mxCell id="GkhUkE4MOTt1ALrYK7Hf-244" value="" style="ellipse;whiteSpace=wrap;html=1;aspect=fixed;strokeColor=#FF800E;" vertex="1" parent="1">
          <mxGeometry x="1310" y="930" width="20" height="20" as="geometry" />
        </mxCell>
        <mxCell id="GkhUkE4MOTt1ALrYK7Hf-245" value="" style="ellipse;whiteSpace=wrap;html=1;aspect=fixed;strokeColor=#FF800E;" vertex="1" parent="1">
          <mxGeometry x="1391" y="960" width="20" height="20" as="geometry" />
        </mxCell>
        <mxCell id="GkhUkE4MOTt1ALrYK7Hf-246" value="" style="ellipse;whiteSpace=wrap;html=1;aspect=fixed;strokeColor=#FF800E;" vertex="1" parent="1">
          <mxGeometry x="1480" y="970" width="20" height="20" as="geometry" />
        </mxCell>
        <mxCell id="GkhUkE4MOTt1ALrYK7Hf-247" value="" style="ellipse;whiteSpace=wrap;html=1;aspect=fixed;strokeColor=#FF800E;" vertex="1" parent="1">
          <mxGeometry x="1231" y="930" width="20" height="20" as="geometry" />
        </mxCell>
        <mxCell id="GkhUkE4MOTt1ALrYK7Hf-248" value="&lt;font style=&quot;font-size: 30px;&quot;&gt;\(Z_{\varepsilon }\)&lt;/font&gt;" style="text;html=1;align=center;verticalAlign=middle;whiteSpace=wrap;rounded=0;" vertex="1" parent="1">
          <mxGeometry x="1250" y="848.25" width="40" height="39" as="geometry" />
        </mxCell>
        <mxCell id="GkhUkE4MOTt1ALrYK7Hf-249" value="" style="shape=flexArrow;endArrow=classic;startArrow=classic;html=1;rounded=0;fillColor=#000000;width=12.258064516129032;endSize=7.890322580645162;startSize=7.890322580645162;endWidth=15.962539021852237;startWidth=15.962539021852237;" edge="1" parent="1">
          <mxGeometry width="100" height="100" relative="1" as="geometry">
            <mxPoint x="1320.37" y="920" as="sourcePoint" />
            <mxPoint x="1320" y="800" as="targetPoint" />
          </mxGeometry>
        </mxCell>
        <mxCell id="GkhUkE4MOTt1ALrYK7Hf-250" value="" style="endArrow=classic;html=1;rounded=0;strokeWidth=7;" edge="1" parent="1">
          <mxGeometry width="50" height="50" relative="1" as="geometry">
            <mxPoint x="741" y="1109" as="sourcePoint" />
            <mxPoint x="740" y="996" as="targetPoint" />
          </mxGeometry>
        </mxCell>
        <mxCell id="GkhUkE4MOTt1ALrYK7Hf-251" value="" style="endArrow=classic;html=1;rounded=0;strokeWidth=7;" edge="1" parent="1">
          <mxGeometry width="50" height="50" relative="1" as="geometry">
            <mxPoint x="738" y="1106" as="sourcePoint" />
            <mxPoint x="848" y="1106" as="targetPoint" />
          </mxGeometry>
        </mxCell>
        <mxCell id="GkhUkE4MOTt1ALrYK7Hf-252" value="&lt;font style=&quot;font-size: 30px;&quot;&gt;\(X,Y\)&lt;/font&gt;" style="text;html=1;align=center;verticalAlign=middle;whiteSpace=wrap;rounded=0;" vertex="1" parent="1">
          <mxGeometry x="850" y="1086" width="70" height="39" as="geometry" />
        </mxCell>
        <mxCell id="GkhUkE4MOTt1ALrYK7Hf-253" value="&lt;font style=&quot;font-size: 30px;&quot;&gt;\(Z\)&lt;/font&gt;" style="text;html=1;align=center;verticalAlign=middle;whiteSpace=wrap;rounded=0;" vertex="1" parent="1">
          <mxGeometry x="720" y="957" width="40" height="39" as="geometry" />
        </mxCell>
        <mxCell id="GkhUkE4MOTt1ALrYK7Hf-254" value="" style="rounded=1;whiteSpace=wrap;html=1;" vertex="1" parent="1">
          <mxGeometry x="720" y="811" width="290" height="119" as="geometry" />
        </mxCell>
        <mxCell id="GkhUkE4MOTt1ALrYK7Hf-255" value="" style="endArrow=none;html=1;rounded=0;strokeWidth=5;strokeColor=#006BA4;" edge="1" parent="1">
          <mxGeometry width="50" height="50" relative="1" as="geometry">
            <mxPoint x="730" y="844.47" as="sourcePoint" />
            <mxPoint x="800" y="844.8399999999999" as="targetPoint" />
          </mxGeometry>
        </mxCell>
        <mxCell id="GkhUkE4MOTt1ALrYK7Hf-256" value="" style="endArrow=none;html=1;rounded=0;strokeWidth=5;strokeColor=#FF800E;dashed=1;" edge="1" parent="1">
          <mxGeometry width="50" height="50" relative="1" as="geometry">
            <mxPoint x="730" y="895.24" as="sourcePoint" />
            <mxPoint x="800" y="895.24" as="targetPoint" />
          </mxGeometry>
        </mxCell>
        <mxCell id="GkhUkE4MOTt1ALrYK7Hf-257" value="&lt;div align=&quot;left&quot;&gt;&lt;font style=&quot;font-size: 30px;&quot;&gt;\(\underline{\mathrm{DSM}}\), &lt;/font&gt;&lt;font style=&quot;font-size: 30px;&quot;&gt;\(\overline{\mathrm{DSM}}\)&lt;/font&gt;&lt;/div&gt;" style="text;html=1;align=left;verticalAlign=middle;whiteSpace=wrap;rounded=0;" vertex="1" parent="1">
          <mxGeometry x="810" y="876" width="190" height="39" as="geometry" />
        </mxCell>
        <mxCell id="GkhUkE4MOTt1ALrYK7Hf-258" value="&lt;div align=&quot;left&quot;&gt;&lt;font style=&quot;font-size: 30px;&quot;&gt;\(\mathrm{DSM}_{true}\)&lt;/font&gt;&lt;/div&gt;" style="text;html=1;align=left;verticalAlign=middle;whiteSpace=wrap;rounded=0;" vertex="1" parent="1">
          <mxGeometry x="810" y="826" width="180" height="39" as="geometry" />
        </mxCell>
      </root>
    </mxGraphModel>
  </diagram>
</mxfile>
